<svg
   xmlns="http://www.w3.org/2000/svg"
   viewBox="0 0 57.5 57.5"
   height="57.5"
   width="57.5"
   version="1.1"
   id="svg3336">

  <path
     id="path3356"
     d="m 25.595731,54.970731 c 0,-3.615404 -4.144235,-4.432189 -5.966524,-1.175939 -0.919284,1.642669 -1.624391,1.705918 -4.48541,0.40235 -2.351216,-1.071285 -3.145022,-2.150662 -2.582505,-3.511561 0.446686,-1.080667 0.890294,-2.8086 0.985798,-3.83985 0.176447,-1.905296 -1.98699,-2.18467 -5.5412095,-0.715561 -1.360898,0.562517 -2.440276,-0.231289 -3.511561,-2.582505 -1.303568,-2.861019 -1.240318,-3.566127 0.40235,-4.48541 3.25625,-1.822289 2.439465,-5.966524 -1.175939,-5.966524 -2.638888,0 -3.125,-0.583334 -3.125,-3.75 0,-3.166666 0.486112,-3.75 3.125,-3.75 3.615404,0 4.432189,-4.144235 1.175939,-5.966524 -1.642668,-0.919284 -1.705918,-1.624391 -0.40235,-4.48541 1.071285,-2.351216 2.150663,-3.145022 3.511561,-2.582505 3.5542195,1.469109 5.7176565,1.189735 5.5412095,-0.715561 -0.0955,-1.03125 -0.539112,-2.7591828 -0.985798,-3.8398505 -0.560762,-1.3566536 0.220219,-2.435232 2.523053,-3.4844729 2.912966,-1.3272366 3.556417,-1.2038015 5.082503,0.9749929 2.217708,3.1662201 5.428883,2.0368098 5.428883,-1.9094055 0,-2.4902934 0.628042,-2.99126401 3.75,-2.99126401 3.121955,0 3.750005,0.50097061 3.750005,2.99126401 0,3.9462153 3.21117,5.0756256 5.42888,1.9094055 1.52608,-2.1787944 2.16954,-2.3022295 5.0825,-0.9749929 2.30284,1.0492409 3.08382,2.1278193 2.52305,3.4844729 -2.15525,5.2142245 -0.65881,6.7106705 4.55542,4.5554115 1.36089,-0.562517 2.44027,0.231289 3.51156,2.582505 1.30356,2.861019 1.24032,3.566127 -0.40235,4.48541 -3.25625,1.822289 -2.43947,5.966524 1.17594,5.966524 2.63888,0 3.125,0.583334 3.125,3.75 0,3.166666 -0.48612,3.75 -3.125,3.75 -3.61541,0 -4.43219,4.144235 -1.17594,5.966524 1.64267,0.919284 1.70591,1.624391 0.40235,4.48541 -1.07129,2.351216 -2.15067,3.145022 -3.51156,2.582505 -5.21423,-2.155259 -6.71067,-0.658813 -4.55542,4.555411 0.56252,1.360899 -0.23128,2.440276 -2.5825,3.511561 -2.86102,1.303568 -3.56613,1.240319 -4.48541,-0.40235 -1.82229,-3.25625 -5.96652,-2.439465 -5.96652,1.175939 0,2.638889 -0.58334,3.125 -3.750005,3.125 -3.166666,0 -3.75,-0.486111 -3.75,-3.125 z M 39.249576,39.249577 c 5.54428,-5.544276 5.54428,-14.263416 0,-19.807692 -3.15999,-3.159989 -4.85384,-3.846154 -9.494536,-3.846154 -13.622242,0 -19.705076,14.261925 -10.155719,23.811283 3.070071,3.070071 4.704671,3.688717 9.74641,3.688717 5.097755,0 6.667175,-0.609482 9.903845,-3.846154 z"
     style="fill:#e7653b" />
</svg>
